<svg xmlns="http://www.w3.org/2000/svg" width="29.004" height="29.004" viewBox="0 0 29.004 29.004">
  <path id="Path_11" data-name="Path 11" d="M5.976-25.307a.916.916,0,0,1,.544.674l1.127,6.112L13.758-17.4a.916.916,0,0,1,.674.544.9.9,0,0,1-.091.861l-3.529,5.12L14.341-5.76a.9.9,0,0,1,.091.861.916.916,0,0,1-.674.544L7.646-3.229,6.519,2.883a.916.916,0,0,1-.544.674.9.9,0,0,1-.861-.091L0-.062-5.115,3.466a.9.9,0,0,1-.861.091.916.916,0,0,1-.544-.674L-7.646-3.229l-6.112-1.127a.916.916,0,0,1-.674-.544.9.9,0,0,1,.091-.861l3.529-5.115-3.529-5.115a.9.9,0,0,1-.091-.861.916.916,0,0,1,.674-.544l6.112-1.127,1.127-6.112a.916.916,0,0,1,.544-.674.9.9,0,0,1,.861.091L0-21.688l5.115-3.529A.9.9,0,0,1,5.976-25.307ZM-5.437-10.875a5.438,5.438,0,0,1,2.719-4.709,5.438,5.438,0,0,1,5.438,0,5.437,5.437,0,0,1,2.719,4.709A5.437,5.437,0,0,1,2.719-6.166a5.437,5.437,0,0,1-5.437,0A5.437,5.437,0,0,1-5.437-10.875Zm12.688,0a7.25,7.25,0,0,0-3.625-6.279,7.25,7.25,0,0,0-7.25,0A7.25,7.25,0,0,0-7.25-10.875,7.25,7.25,0,0,0-3.625-4.6a7.25,7.25,0,0,0,7.25,0A7.25,7.25,0,0,0,7.25-10.875Z" transform="translate(14.502 25.377)" fill="#fff"/>
</svg>
